<svg id="Layer_1" data-name="Layer 1" xmlns="http://www.w3.org/2000/svg" viewBox="0 0 120 120"><title>logo</title><g id="Mobile"><g id="assets"><path id="kangaroo-logo" d="M15.12,54.1l-.48.21-.24.11V3.6a3.66,3.66,0,0,1,.9-2.48,3.2,3.2,0,0,1,2.55-1H41.09a4.23,4.23,0,0,1,2.47,1A3,3,0,0,1,44.85,3.6V47.2Q53.43,36,61.69,25.12T78.45,3A6.92,6.92,0,0,1,80.69.84,5.22,5.22,0,0,1,83.41,0h29.9q1.89,0,1.89,1.2a3.39,3.39,0,0,1-.87,1.92L79.2,50.22c-5.6-7-13.72-12.42-21-13.79a1.49,1.49,0,0,0-1.48.57,1.57,1.57,0,0,0-.2,1.6A11.8,11.8,0,0,1,46,55.2a11.4,11.4,0,0,1-4.35-.86L41,54h0a32.27,32.27,0,0,0-16-2.49h0c-1,.09-2,.24-3,.42h0l-1,.2-.31.08c-.21,0-.42.09-.63.15l-.39.1-.54.15-.41.12-.52.16-.4.13-.52.18-.39.15-.51.18-.4.17-.49.19Zm104,62.52a4.52,4.52,0,0,1,.87,2.17c0,.81-.58,1.21-1.75,1.21h-30a5.06,5.06,0,0,1-2.67-.81A6.74,6.74,0,0,1,83.35,117q-4.21-5.79-7.67-11.11T69,95.32q-3.27-5.26-6.6-10.66T55,73.31L45,85.06v31.4Q45,120,41.14,120H34.07V84.54A13.62,13.62,0,0,0,20.66,70.87h-.1a13.26,13.26,0,0,0-6.38,1.62V62.4A24.26,24.26,0,0,0,3.1,82.93a1.55,1.55,0,1,1-3.1,0A27.41,27.41,0,0,1,8.21,63.2a28.56,28.56,0,0,1,6-4.59h0l.12-.06.56-.29.21-.09.59-.28.26-.12.55-.24.17-.07.65-.26.16-.06.67-.25.22-.07.62-.21.15,0,.7-.22.34-.09.52-.14.25-.06q.73-.18,1.5-.33h0c.9-.17,1.81-.3,2.72-.38h0a29.58,29.58,0,0,1,14.63,2.25l.24.11.11.05.42.18a14.56,14.56,0,0,0,5.57,1.1A15,15,0,0,0,60.55,40.8c6.08,2,12.68,6.82,17.16,12.69h0ZM20.86,74.4A10.45,10.45,0,0,1,31.2,84.85V120H18q-3.57,0-3.57-3.51V76.6a10.26,10.26,0,0,1,6.37-2.2Z"/></g></g></svg>